<?xml version="1.0" encoding="utf-8"?>
<!-- Generator: Adobe Illustrator 24.2.1, SVG Export Plug-In . SVG Version: 6.00 Build 0)  -->
<svg version="1.1" xmlns="http://www.w3.org/2000/svg" xmlns:xlink="http://www.w3.org/1999/xlink" x="0px" y="0px"
	 viewBox="0 0 2000 2000" style="enable-background:new 0 0 2000 2000;" xml:space="preserve">
<style type="text/css">
	.st0{display:none;}
	.st1{display:inline;}
</style>
<g id="Layer_1" class="st0">
	<g id="Layer_1_1_">
		
			<image style="display:inline;overflow:visible;enable-background:new    ;" width="720" height="1280" xlink:href="C48759FD.jpg"  transform="matrix(3.566784e-16 -5.825 5.825 3.566784e-16 -1727.9994 3283.1809)">
		</image>
	</g>
</g>
<g id="M">
	<g id="Layer_2_1_">
		<path d="M1662.5,400v812.9c-4.1-0.3-8.3-0.4-12.5-0.4c-117.4,0-212.5,95.1-212.5,212.5c0,72.6,36.4,136.7,91.9,175h-216.9v-562.5
			l-300,287.5l-300-300v575h-350V400h350l300,437.5l300-437.5H1662.5z"/>
	</g>
</g>
<g id="Dott" class="st0">
	<circle class="st1" cx="1750" cy="1450" r="150"/>
</g>
<g id="Layer_4">
	<path d="M1800,1425c0,79.2-61.4,144.1-139.3,149.6c-3.5,0.3-7.1,0.4-10.7,0.4c-82.8,0-150-67.2-150-150s67.2-150,150-150
		c3.6,0,7.2,0.1,10.7,0.4C1738.6,1280.9,1800,1345.8,1800,1425z"/>
</g>
<g id="Layer_5">
</g>
</svg>
